<svg id="svg" version="1.1" xmlns="http://www.w3.org/2000/svg" xmlns:xlink="http://www.w3.org/1999/xlink" width="400" height="400" viewBox="0, 0, 400,400"><g id="svgg"><path id="path0" d="M172.070 163.912 C 157.031 170.043,138.139 177.722,130.088 180.977 C 114.529 187.266,114.063 187.519,114.063 189.648 C 114.063 191.707,114.823 192.193,123.185 195.480 L 130.859 198.497 130.844 214.776 L 130.829 231.055 129.575 231.836 C 124.904 234.745,126.298 242.577,131.689 243.717 C 138.783 245.216,142.187 235.844,136.070 231.653 L 134.766 230.759 134.766 215.403 L 134.766 200.047 136.492 200.636 L 138.217 201.224 139.761 199.538 C 140.609 198.610,144.339 194.248,148.050 189.844 C 160.221 175.395,160.827 175.070,165.833 180.302 L 168.190 182.765 174.008 175.936 C 184.446 163.684,183.645 163.813,193.116 172.852 C 196.267 175.859,199.003 178.320,199.195 178.320 C 199.633 178.320,213.972 160.573,215.373 158.298 C 215.700 157.765,215.015 157.423,207.676 154.451 C 200.999 151.746,203.626 151.048,172.070 163.912 M244.281 176.037 C 239.047 183.027,238.420 183.594,235.921 183.594 L 233.859 183.594 229.136 178.937 L 224.414 174.280 214.453 186.589 C 199.945 204.517,201.279 204.092,191.127 194.020 C 187.858 190.777,185.120 188.203,185.041 188.300 C 169.950 206.997,169.117 207.545,163.797 202.276 C 162.280 200.773,161.192 199.968,161.022 200.222 C 160.868 200.452,159.468 202.144,157.910 203.981 C 156.353 205.819,155.078 207.419,155.078 207.537 C 155.078 207.738,163.666 211.189,189.703 221.450 C 196.409 224.092,201.237 225.781,202.084 225.781 C 203.576 225.781,206.661 224.599,225.781 216.703 C 232.549 213.908,248.984 207.249,262.305 201.906 C 287.045 191.980,287.500 191.759,287.500 189.642 C 287.500 187.782,286.405 187.069,278.906 184.049 C 275.146 182.534,266.885 179.158,260.547 176.545 C 254.209 173.933,248.735 171.710,248.383 171.606 C 247.922 171.469,246.771 172.713,244.281 176.037 M150.781 226.175 L 150.781 242.277 151.848 244.238 C 162.315 263.469,238.535 263.393,249.376 244.141 L 250.586 241.992 250.700 226.465 C 250.767 217.469,250.667 210.938,250.464 210.938 C 250.026 210.938,230.510 218.709,215.234 224.966 C 200.767 230.892,202.443 230.636,195.842 227.937 C 191.924 226.335,159.851 213.618,151.270 210.264 C 150.884 210.113,150.781 213.452,150.781 226.175 M134.979 235.334 C 137.596 237.951,134.028 241.722,131.107 239.425 C 129.684 238.305,129.684 236.304,131.107 235.185 C 132.473 234.111,133.807 234.162,134.979 235.334 " stroke="none" fill="#444444" fill-rule="evenodd"></path><path id="path1" d="M0.000 200.000 L 0.000 400.000 200.000 400.000 L 400.000 400.000 400.000 200.000 L 400.000 0.000 200.000 0.000 L 0.000 0.000 0.000 200.000 M278.122 116.504 C 278.120 116.772,277.864 118.926,277.553 121.289 C 276.489 129.381,274.609 146.455,274.609 148.033 C 274.609 150.438,273.732 149.788,268.564 143.555 C 267.317 142.051,266.163 140.767,265.998 140.703 C 265.834 140.638,263.628 143.450,261.097 146.953 C 254.401 156.216,238.682 177.067,237.965 177.637 C 235.883 179.292,234.118 178.430,228.943 173.229 C 224.297 168.559,224.041 168.365,223.400 169.030 C 223.030 169.413,220.207 172.907,217.125 176.795 C 205.866 191.003,202.308 195.271,201.519 195.522 C 199.352 196.209,198.190 195.448,191.615 189.041 C 188.101 185.615,185.134 182.813,185.023 182.813 C 184.912 182.813,181.972 186.196,178.489 190.332 C 168.921 201.696,168.746 201.772,163.906 196.707 L 161.132 193.805 153.650 202.664 C 149.534 207.537,144.612 213.401,142.712 215.696 C 140.812 217.991,139.126 219.881,138.965 219.896 C 138.804 219.910,138.672 216.932,138.672 213.278 L 138.672 206.634 141.715 203.219 C 145.693 198.755,153.509 189.606,156.365 186.071 C 158.856 182.988,159.126 182.813,161.402 182.813 C 162.983 182.813,165.066 184.502,167.063 187.402 C 168.063 188.855,168.391 188.580,175.358 180.473 C 184.985 169.269,183.821 169.376,193.448 178.809 C 196.612 181.909,199.356 184.386,199.545 184.313 C 199.916 184.169,214.300 166.315,218.292 161.042 C 222.698 155.224,223.557 155.332,230.492 162.578 L 235.008 167.296 238.874 162.066 C 241.000 159.190,246.216 152.144,250.464 146.409 C 254.712 140.674,258.236 135.774,258.293 135.520 C 258.353 135.259,256.123 134.097,253.151 132.840 C 250.264 131.620,247.849 130.456,247.783 130.253 C 247.717 130.049,251.133 128.304,255.374 126.375 C 259.616 124.445,266.338 121.340,270.313 119.475 C 278.213 115.767,278.126 115.800,278.122 116.504 M208.123 154.328 C 214.764 157.006,216.164 157.743,215.706 158.324 C 215.504 158.580,213.699 160.898,211.696 163.477 C 209.692 166.055,206.285 170.354,204.124 173.031 C 201.963 175.708,199.996 178.161,199.752 178.482 C 199.381 178.969,198.234 178.048,192.839 172.931 L 186.370 166.797 184.494 166.806 C 182.074 166.817,182.126 166.771,174.790 175.391 C 167.553 183.894,168.326 183.403,166.132 180.895 C 161.265 175.331,160.340 175.760,149.401 188.672 C 144.941 193.936,140.637 198.989,139.836 199.902 L 138.378 201.562 136.718 200.976 C 135.805 200.654,135.036 200.391,135.009 200.390 C 134.983 200.390,135.018 207.196,135.088 215.515 L 135.215 230.639 136.758 231.960 C 141.920 236.379,139.577 243.945,133.046 243.945 C 126.628 243.945,123.849 235.334,129.159 231.896 L 130.459 231.055 130.464 214.951 L 130.469 198.848 129.395 198.300 C 128.804 197.998,125.776 196.753,122.667 195.533 C 115.186 192.596,114.637 192.316,114.117 191.174 C 112.809 188.303,114.102 187.164,122.461 183.826 C 126.113 182.368,135.781 178.448,143.945 175.116 C 159.504 168.766,195.029 154.301,198.047 153.087 C 200.951 151.919,202.676 152.132,208.123 154.328 M262.556 177.087 C 270.582 180.383,279.223 183.927,281.758 184.961 C 286.597 186.935,287.898 187.962,287.882 189.799 C 287.864 191.863,286.977 192.319,269.336 199.327 C 259.883 203.083,243.359 209.764,232.617 214.174 C 203.023 226.325,203.930 225.977,201.953 225.931 C 200.692 225.902,196.940 224.600,188.672 221.322 C 182.334 218.809,172.227 214.808,166.211 212.431 C 160.195 210.054,155.117 207.965,154.926 207.789 C 154.650 207.535,156.901 204.620,161.242 199.609 C 161.335 199.502,162.315 200.399,163.420 201.602 C 165.768 204.159,166.640 204.688,168.511 204.688 C 170.921 204.688,171.809 203.908,178.385 196.017 C 181.930 191.762,185.018 188.281,185.248 188.281 C 185.477 188.281,188.407 190.982,191.758 194.282 C 200.926 203.311,200.433 203.410,211.034 190.430 C 215.070 185.488,219.644 179.827,221.198 177.849 C 224.676 173.422,224.017 173.355,229.199 178.662 C 235.928 185.553,236.892 185.419,243.359 176.692 C 245.615 173.648,247.574 171.143,247.712 171.126 C 247.851 171.108,254.530 173.791,262.556 177.087 M162.305 214.335 C 168.105 216.606,179.156 220.990,186.862 224.076 C 194.568 227.162,201.372 229.688,201.982 229.688 C 202.592 229.688,208.943 227.295,216.096 224.370 C 228.658 219.234,250.372 210.547,250.647 210.547 C 251.135 210.547,250.728 241.827,250.225 243.019 C 241.399 263.903,161.233 264.337,151.172 243.555 C 150.033 241.202,149.941 209.510,151.074 209.944 C 151.450 210.088,156.504 212.064,162.305 214.335 M131.066 235.534 C 129.532 237.229,130.710 239.844,133.008 239.844 C 134.543 239.844,135.547 238.813,135.547 237.237 C 135.547 234.988,132.581 233.860,131.066 235.534 " stroke="none" fill="#fafbfb" fill-rule="evenodd"></path><path id="path2" d="M271.875 118.965 C 268.975 120.329,262.471 123.323,257.422 125.618 C 252.373 127.912,248.106 129.912,247.939 130.061 C 247.773 130.210,249.807 131.244,252.461 132.358 C 259.277 135.221,259.067 134.991,257.200 137.545 C 254.341 141.456,235.460 166.991,235.301 167.162 C 235.214 167.255,232.890 165.101,230.136 162.376 C 223.243 155.557,222.578 155.521,217.943 161.719 C 216.577 163.545,211.946 169.434,207.652 174.805 C 203.358 180.176,199.796 184.640,199.736 184.725 C 199.676 184.809,196.896 182.260,193.558 179.060 C 184.005 169.901,184.640 169.910,176.972 178.841 C 173.959 182.350,170.772 186.041,169.889 187.044 L 168.284 188.867 165.685 186.032 C 161.592 181.566,160.199 181.701,155.827 186.987 C 152.032 191.574,147.158 197.278,142.468 202.619 L 138.624 206.995 138.717 213.263 C 138.825 220.582,138.600 220.345,141.787 216.504 C 147.964 209.058,160.999 193.750,161.162 193.750 C 161.261 193.750,162.498 194.976,163.911 196.474 C 168.609 201.454,168.942 201.316,177.955 190.650 L 184.920 182.408 186.892 184.270 C 187.977 185.295,190.990 188.198,193.588 190.723 C 200.071 197.022,200.821 197.075,205.136 191.552 C 206.501 189.805,210.702 184.532,214.473 179.833 C 218.243 175.134,221.824 170.630,222.429 169.824 C 223.958 167.791,223.983 167.803,228.975 173.014 C 235.209 179.523,236.374 179.696,240.175 174.679 C 249.159 162.818,256.417 153.101,260.746 147.135 L 265.801 140.168 267.178 141.682 C 267.935 142.515,269.770 144.640,271.256 146.403 C 272.742 148.167,274.005 149.563,274.063 149.505 C 274.121 149.447,274.540 145.887,274.994 141.594 C 275.448 137.301,276.303 129.878,276.894 125.098 C 277.588 119.490,277.824 116.420,277.559 116.445 C 277.333 116.466,274.775 117.600,271.875 118.965 " stroke="none" fill="#ec792c" fill-rule="evenodd"></path><path id="path3" d="M274.309 148.438 C 274.309 149.189,274.390 149.497,274.488 149.121 C 274.586 148.745,274.586 148.130,274.488 147.754 C 274.390 147.378,274.309 147.686,274.309 148.438 M222.563 157.308 C 223.049 157.401,223.752 157.397,224.126 157.300 C 224.499 157.202,224.102 157.125,223.242 157.130 C 222.383 157.134,222.077 157.214,222.563 157.308 M228.125 160.352 C 229.509 161.748,230.729 162.891,230.837 162.891 C 230.944 162.891,229.900 161.748,228.516 160.352 C 227.132 158.955,225.911 157.813,225.804 157.813 C 225.696 157.813,226.741 158.955,228.125 160.352 M190.039 170.313 C 191.531 171.816,192.840 173.047,192.948 173.047 C 193.055 173.047,191.922 171.816,190.430 170.313 C 188.937 168.809,187.628 167.578,187.521 167.578 C 187.414 167.578,188.547 168.809,190.039 170.313 M228.125 172.461 C 229.509 173.857,230.729 175.000,230.837 175.000 C 230.944 175.000,229.900 173.857,228.516 172.461 C 227.132 171.064,225.911 169.922,225.804 169.922 C 225.696 169.922,226.741 171.064,228.125 172.461 M190.430 176.172 C 192.138 177.891,193.624 179.297,193.732 179.297 C 193.839 179.297,192.529 177.891,190.820 176.172 C 189.112 174.453,187.626 173.047,187.518 173.047 C 187.411 173.047,188.721 174.453,190.430 176.172 M227.539 177.344 C 229.248 179.063,230.734 180.469,230.841 180.469 C 230.948 180.469,229.638 179.063,227.930 177.344 C 226.221 175.625,224.735 174.219,224.628 174.219 C 224.520 174.219,225.830 175.625,227.539 177.344 M192.383 189.844 C 194.523 191.992,196.362 193.750,196.470 193.750 C 196.577 193.750,194.914 191.992,192.773 189.844 C 190.633 187.695,188.794 185.938,188.687 185.938 C 188.579 185.938,190.242 187.695,192.383 189.844 M199.707 195.582 C 200.083 195.680,200.698 195.680,201.074 195.582 C 201.450 195.484,201.143 195.403,200.391 195.403 C 199.639 195.403,199.331 195.484,199.707 195.582 M164.453 197.461 C 165.182 198.213,165.866 198.828,165.974 198.828 C 166.081 198.828,165.573 198.213,164.844 197.461 C 164.115 196.709,163.431 196.094,163.323 196.094 C 163.216 196.094,163.724 196.709,164.453 197.461 M130.469 214.765 L 130.664 231.055 130.766 215.063 C 130.822 206.268,130.734 198.937,130.571 198.774 C 130.407 198.610,130.361 205.806,130.469 214.765 M142.749 202.051 L 141.602 203.320 142.871 202.173 C 144.054 201.104,144.320 200.781,144.018 200.781 C 143.951 200.781,143.380 201.353,142.749 202.051 M134.941 215.625 C 134.941 222.822,134.993 225.767,135.058 222.168 C 135.122 218.569,135.122 212.681,135.058 209.082 C 134.993 205.483,134.941 208.428,134.941 215.625 M192.676 258.863 C 193.052 258.961,193.667 258.961,194.043 258.863 C 194.419 258.765,194.111 258.684,193.359 258.684 C 192.607 258.684,192.300 258.765,192.676 258.863 " stroke="none" fill="#c7b4a9" fill-rule="evenodd"></path><path id="path4" d="M200.688 152.620 C 201.174 152.713,201.877 152.710,202.251 152.612 C 202.624 152.514,202.227 152.438,201.367 152.442 C 200.508 152.447,200.202 152.527,200.688 152.620 M196.289 176.172 C 197.128 177.031,197.903 177.734,198.010 177.734 C 198.118 177.734,197.519 177.031,196.680 176.172 C 195.841 175.313,195.066 174.609,194.959 174.609 C 194.851 174.609,195.450 175.313,196.289 176.172 M164.063 178.638 C 164.063 178.705,164.634 179.276,165.332 179.907 L 166.602 181.055 165.454 179.785 C 164.385 178.602,164.063 178.336,164.063 178.638 M192.188 195.117 C 194.867 197.803,197.146 200.000,197.254 200.000 C 197.361 200.000,195.257 197.803,192.578 195.117 C 189.899 192.432,187.619 190.234,187.512 190.234 C 187.404 190.234,189.508 192.432,192.188 195.117 M167.876 204.964 C 168.362 205.057,169.065 205.054,169.438 204.956 C 169.812 204.858,169.414 204.782,168.555 204.786 C 167.695 204.790,167.390 204.870,167.876 204.964 M155.470 206.444 C 154.966 206.980,154.628 207.484,154.719 207.564 C 154.809 207.644,155.292 207.205,155.791 206.589 C 156.910 205.210,156.713 205.121,155.470 206.444 M150.569 225.781 C 150.569 234.482,150.620 238.042,150.683 233.691 C 150.746 229.341,150.746 222.222,150.683 217.871 C 150.620 213.521,150.569 217.080,150.569 225.781 M134.856 229.688 C 134.856 230.439,134.937 230.747,135.035 230.371 C 135.133 229.995,135.133 229.380,135.035 229.004 C 134.937 228.628,134.856 228.936,134.856 229.688 M195.416 258.874 C 196.009 258.964,196.888 258.961,197.369 258.869 C 197.849 258.776,197.363 258.703,196.289 258.705 C 195.215 258.708,194.822 258.784,195.416 258.874 M204.987 258.877 C 205.690 258.964,206.744 258.962,207.331 258.873 C 207.918 258.784,207.344 258.713,206.055 258.715 C 204.766 258.717,204.285 258.790,204.987 258.877 " stroke="none" fill="#959493" fill-rule="evenodd"></path></g></svg>